<svg xmlns="http://www.w3.org/2000/svg" width="1149.987" height="629.172" viewBox="0 0 1149.987 629.172">
  <g id="undraw_video_call_kxyp" transform="translate(-5.6 -68.438)">
    <path id="Path_31" data-name="Path 31" d="M1165.61,751.83a189.1,189.1,0,0,1-16.41,31.52,136.391,136.391,0,0,1-9.94,13.66l-.11.13H27.8L28,797c1-.78,6.87-5.53,16-13.66,6.55-5.84,14.77-13.42,24-22.54,75.49-74.25,220.5-250,99.73-411-112.27-149.67,8.61-176.84,88.35-180a228.251,228.251,0,0,1,89.87,14.69c36.83,14,104.16,35.47,191.88,45.3q4.32.49,8.72.94a840.2,840.2,0,0,0,139.78,2.53h0c1.37-.07,2.75-.17,4.14-.27a831.751,831.751,0,0,0,136.72-21.16c2.91-.71,5.78-1.38,8.64-2,149.63-34.62,287.57,83.37,253.09,216.72-12.76,49.31-9.52,101.89,33,144.41C1191.47,640.4,1183,708.76,1165.61,751.83Z" transform="translate(-22.2 -101.19)" fill="#06f" opacity="0.1"/>
    <ellipse id="Ellipse_10" data-name="Ellipse 10" cx="14.05" cy="10.73" rx="14.05" ry="10.73" transform="matrix(0.488, -0.873, 0.873, 0.488, 881.441, 278.811)" fill="#3f3d56"/>
    <ellipse id="Ellipse_11" data-name="Ellipse 11" cx="14.05" cy="10.73" rx="14.05" ry="10.73" transform="matrix(0.488, -0.873, 0.873, 0.488, 889.817, 263.821)" fill="#3f3d56"/>
    <ellipse id="Ellipse_12" data-name="Ellipse 12" cx="14.05" cy="10.73" rx="14.05" ry="10.73" transform="matrix(0.488, -0.873, 0.873, 0.488, 898.201, 248.837)" fill="#3f3d56"/>
    <ellipse id="Ellipse_13" data-name="Ellipse 13" cx="14.05" cy="10.73" rx="14.05" ry="10.73" transform="matrix(0.488, -0.873, 0.873, 0.488, 906.577, 233.837)" fill="#3f3d56"/>
    <ellipse id="Ellipse_14" data-name="Ellipse 14" cx="14.05" cy="10.73" rx="14.05" ry="10.73" transform="matrix(0.488, -0.873, 0.873, 0.488, 914.948, 218.856)" fill="#3f3d56"/>
    <ellipse id="Ellipse_15" data-name="Ellipse 15" cx="14.05" cy="10.73" rx="14.05" ry="10.73" transform="matrix(0.488, -0.873, 0.873, 0.488, 923.333, 203.866)" fill="#3f3d56"/>
    <ellipse id="Ellipse_16" data-name="Ellipse 16" cx="14.05" cy="10.73" rx="14.05" ry="10.73" transform="matrix(0.488, -0.873, 0.873, 0.488, 931.718, 188.882)" fill="#3f3d56"/>
    <path id="Path_34" data-name="Path 34" d="M1011.39,631.77h12.11a25,25,0,0,1,25,25v37.11H986.39V656.77A25,25,0,0,1,1011.39,631.77Z" fill="#3f3d56"/>
    <path id="Path_35" data-name="Path 35" d="M1011.39,631.77h12.11a25,25,0,0,1,25,25v37.11H986.39V656.77A25,25,0,0,1,1011.39,631.77Z" opacity="0.1"/>
    <circle id="Ellipse_17" data-name="Ellipse 17" cx="4.97" cy="4.97" r="4.97" transform="translate(1010 635.5)" fill="#3f3d56"/>
    <circle id="Ellipse_18" data-name="Ellipse 18" cx="4.97" cy="4.97" r="4.97" transform="translate(1010 629.29)" fill="#3f3d56"/>
    <circle id="Ellipse_19" data-name="Ellipse 19" cx="4.97" cy="4.97" r="4.97" transform="translate(1010 623.07)" fill="#3f3d56"/>
    <circle id="Ellipse_20" data-name="Ellipse 20" cx="4.97" cy="4.97" r="4.97" transform="translate(1010 616.86)" fill="#3f3d56"/>
    <circle id="Ellipse_21" data-name="Ellipse 21" cx="4.97" cy="4.97" r="4.97" transform="translate(1010 610.65)" fill="#3f3d56"/>
    <circle id="Ellipse_22" data-name="Ellipse 22" cx="4.97" cy="4.97" r="4.97" transform="translate(1010 604.44)" fill="#3f3d56"/>
    <circle id="Ellipse_23" data-name="Ellipse 23" cx="4.97" cy="4.97" r="4.97" transform="translate(1010 598.23)" fill="#3f3d56"/>
    <circle id="Ellipse_24" data-name="Ellipse 24" cx="4.97" cy="4.97" r="4.97" transform="translate(1017.45 600.71)" fill="#3f3d56"/>
    <circle id="Ellipse_25" data-name="Ellipse 25" cx="4.97" cy="4.97" r="4.97" transform="translate(1022.42 598.23)" fill="#3f3d56"/>
    <circle id="Ellipse_26" data-name="Ellipse 26" cx="4.97" cy="4.97" r="4.97" transform="translate(1027.39 595.74)" fill="#3f3d56"/>
    <circle id="Ellipse_27" data-name="Ellipse 27" cx="4.97" cy="4.97" r="4.97" transform="translate(1010 592.02)" fill="#3f3d56"/>
    <circle id="Ellipse_28" data-name="Ellipse 28" cx="4.97" cy="4.97" r="4.97" transform="translate(1010 585.81)" fill="#3f3d56"/>
    <circle id="Ellipse_29" data-name="Ellipse 29" cx="4.97" cy="4.97" r="4.97" transform="translate(1010 579.59)" fill="#3f3d56"/>
    <circle id="Ellipse_30" data-name="Ellipse 30" cx="4.97" cy="4.97" r="4.97" transform="translate(1010 573.38)" fill="#3f3d56"/>
    <path id="Path_36" data-name="Path 36" d="M1057.77,663.52q-1.85.27-3.72.39a28.556,28.556,0,0,0,3.2-3.28,21,21,0,0,0-3-5.83,10.339,10.339,0,0,1-4,1.27c-1.23.18-2.47.31-3.71.39a66.4,66.4,0,0,0,4.75-5,21.1,21.1,0,1,0,6.93,15.61,20.668,20.668,0,0,0-.32-3.63Z" transform="translate(-22.2 -101.19)" fill="#06f"/>
    <path id="Path_37" data-name="Path 37" d="M1074.37,688.21a9.781,9.781,0,0,1-4.18,1.4c-1.23.18-2.47.31-3.71.39a36.417,36.417,0,0,0,3.68-3.82,12.83,12.83,0,0,0-3.18-.42,12.44,12.44,0,1,0,7.39,2.45Z" transform="translate(-22.2 -101.19)" fill="#06f"/>
    <circle id="Ellipse_31" data-name="Ellipse 31" cx="4.97" cy="4.97" r="4.97" transform="translate(1002.54 600.71)" fill="#3f3d56"/>
    <circle id="Ellipse_32" data-name="Ellipse 32" cx="4.97" cy="4.97" r="4.97" transform="translate(997.57 598.23)" fill="#3f3d56"/>
    <circle id="Ellipse_33" data-name="Ellipse 33" cx="4.97" cy="4.97" r="4.97" transform="translate(992.61 595.74)" fill="#3f3d56"/>
    <path id="Path_38" data-name="Path 38" d="M1000,688.21a9.78,9.78,0,0,0,4.18,1.4c1.23.18,2.47.31,3.71.39a36.4,36.4,0,0,1-3.68-3.82,12.836,12.836,0,0,1,3.18-.42,12.44,12.44,0,1,1-7.39,2.45Z" transform="translate(-22.2 -101.19)" fill="#06f"/>
    <path id="Path_39" data-name="Path 39" d="M1011.39,635.5h12.11a25,25,0,0,1,25,25v32.87a4.24,4.24,0,0,1-4.24,4.24H990.63a4.24,4.24,0,0,1-4.24-4.24V660.5A25,25,0,0,1,1011.39,635.5Z" fill="#3f3d56"/>
    <g id="Group_1" data-name="Group 1" opacity="0.1">
      <path id="Path_40" data-name="Path 40" d="M1058.15,664.88a16.187,16.187,0,0,1-1.61,1.52,16,16,0,0,0,1.7-.15C1058.22,665.79,1058.2,665.33,1058.15,664.88Z" transform="translate(-22.2 -101.19)"/>
      <path id="Path_41" data-name="Path 41" d="M1049.09,658.94c1.24-.08,2.48-.21,3.71-.39a11.64,11.64,0,0,0,3.23-.88,22.611,22.611,0,0,0-1.74-2.87,7.524,7.524,0,0,1-2,.85A29.578,29.578,0,0,1,1049.09,658.94Z" transform="translate(-22.2 -101.19)"/>
      <path id="Path_42" data-name="Path 42" d="M1018.53,669.61a21.08,21.08,0,0,1,32.5-17.76l.32-.34a21.1,21.1,0,1,0-27.82,31.73A21,21,0,0,1,1018.53,669.61Z" transform="translate(-22.2 -101.19)"/>
    </g>
    <g id="Group_2" data-name="Group 2" opacity="0.1">
      <path id="Path_43" data-name="Path 43" d="M1066.48,692.49c1.24-.09,2.48-.22,3.71-.4a9.77,9.77,0,0,0,4.18-1.39,12.389,12.389,0,0,1,5,8.8,11.574,11.574,0,0,0,.07-1.32,12.39,12.39,0,0,0-5-10,9.781,9.781,0,0,1-4.18,1.4l-1,.12A24.621,24.621,0,0,1,1066.48,692.49Z" transform="translate(-22.2 -101.19)"/>
      <path id="Path_44" data-name="Path 44" d="M1067,688.24a5.709,5.709,0,0,1,1.24.09c.65-.69,1.29-1.43,1.94-2.15a12.83,12.83,0,0,0-3.18-.42,12.42,12.42,0,0,0-12.42,12.42,8.454,8.454,0,0,0,.06,1.24A12.43,12.43,0,0,1,1067,688.24Z" transform="translate(-22.2 -101.19)"/>
    </g>
    <g id="Group_3" data-name="Group 3" opacity="0.1">
      <path id="Path_45" data-name="Path 45" d="M1007.85,692.49c-1.24-.09-2.48-.22-3.71-.4a9.771,9.771,0,0,1-4.18-1.39,12.39,12.39,0,0,0-5,8.8,11.532,11.532,0,0,1-.07-1.32,12.39,12.39,0,0,1,5-10,9.78,9.78,0,0,0,4.18,1.4l1,.12a25.5,25.5,0,0,0,2.78,2.79Z" transform="translate(-22.2 -101.19)"/>
      <path id="Path_46" data-name="Path 46" d="M1007.35,688.24a5.709,5.709,0,0,0-1.24.09c-.65-.69-1.29-1.43-1.94-2.15a12.83,12.83,0,0,1,3.18-.42,12.42,12.42,0,0,1,12.42,12.42,8.438,8.438,0,0,1-.06,1.24A12.43,12.43,0,0,0,1007.35,688.24Z" transform="translate(-22.2 -101.19)"/>
    </g>
    <path id="Path_60" data-name="Path 60" d="M679.98,696.14l-195-2.5.57-5,9.43-82.5H666.23l12.6,82.5.96,6.25Z" fill="#d0d2d5"/>
    <path id="Path_61" data-name="Path 61" d="M679.79,694.89H582.48l-97.5-1.25.57-5H678.83Z" opacity="0.1"/>
    <rect id="Rectangle_1" data-name="Rectangle 1" width="258.75" height="6.25" transform="translate(452.48 689.89)" fill="#d0d2d5"/>
    <path id="Path_62" data-name="Path 62" d="M980.3,211.81a16.28,16.28,0,0,0-16.19-16.36H241.5a16.28,16.28,0,0,0-16.2,16.36v438h755Z" transform="translate(-22.2 -101.19)" fill="#444053"/>
    <path id="Path_63" data-name="Path 63" d="M225.3,645.45v51.31A16.19,16.19,0,0,0,241.5,713H964.11a16.19,16.19,0,0,0,16.19-16.19V645.45Z" transform="translate(-22.2 -101.19)" fill="#d0d2d5"/>
    <rect id="Rectangle_2" data-name="Rectangle 2" width="696.25" height="393.75" transform="translate(234.35 121.76)" fill="#06f" opacity="0.1"/>
    <path id="Path_64" data-name="Path 64" d="M606.55,693.49a16.89,16.89,0,0,0,13.28-6.44h0a18.177,18.177,0,0,0,1.31-1.93l-9.26-1.52,10,.07a16.83,16.83,0,0,0,.32-13.37l-13.43,7,12.39-9.1A16.87,16.87,0,1,0,593.29,687h0a16.87,16.87,0,0,0,13.26,6.49Z" transform="translate(-22.2 -101.19)" fill="#06f"/>
    <path id="Path_65" data-name="Path 65" d="M601.23,611.76l77.79,78.13-11.93-78.13Z" opacity="0.1"/>
    <rect id="Rectangle_3" data-name="Rectangle 3" width="537.5" height="285.41" transform="translate(257.73 163.38)" fill="#fff"/>
    <rect id="Rectangle_4" data-name="Rectangle 4" width="149.92" height="7.77" transform="translate(287.71 237.78)" fill="#06f" opacity="0.1"/>
    <rect id="Rectangle_5" data-name="Rectangle 5" width="14.44" height="41.09" transform="translate(301.04 196.69)" fill="#06f" opacity="0.1"/>
    <rect id="Rectangle_6" data-name="Rectangle 6" width="14.44" height="41.09" transform="translate(322.14 196.69)" fill="#06f" opacity="0.1"/>
    <rect id="Rectangle_7" data-name="Rectangle 7" width="14.44" height="41.09" transform="translate(343.24 196.69)" fill="#06f" opacity="0.1"/>
    <rect id="Rectangle_8" data-name="Rectangle 8" width="14.44" height="41.09" transform="translate(364.34 196.69)" fill="#06f" opacity="0.1"/>
    <rect id="Rectangle_9" data-name="Rectangle 9" width="14.44" height="41.09" transform="translate(385.44 196.69)" fill="#06f" opacity="0.1"/>
    <rect id="Rectangle_10" data-name="Rectangle 10" width="14.44" height="41.09" transform="translate(406.54 196.69)" fill="#06f" opacity="0.1"/>
    <rect id="Rectangle_11" data-name="Rectangle 11" width="14.44" height="4.44" transform="translate(301.04 204.47)" fill="#06f" opacity="0.1"/>
    <rect id="Rectangle_12" data-name="Rectangle 12" width="14.44" height="4.44" transform="translate(322.14 204.47)" fill="#06f" opacity="0.1"/>
    <rect id="Rectangle_13" data-name="Rectangle 13" width="14.44" height="4.44" transform="translate(343.24 204.47)" fill="#06f" opacity="0.1"/>
    <rect id="Rectangle_14" data-name="Rectangle 14" width="14.44" height="4.44" transform="translate(364.34 204.47)" fill="#06f" opacity="0.1"/>
    <rect id="Rectangle_15" data-name="Rectangle 15" width="14.44" height="4.44" transform="translate(385.44 204.47)" fill="#06f" opacity="0.1"/>
    <rect id="Rectangle_16" data-name="Rectangle 16" width="14.44" height="4.44" transform="translate(406.54 204.47)" fill="#06f" opacity="0.1"/>
    <rect id="Rectangle_17" data-name="Rectangle 17" width="14.44" height="4.44" transform="translate(301.04 224.46)" fill="#06f" opacity="0.1"/>
    <rect id="Rectangle_18" data-name="Rectangle 18" width="14.44" height="4.44" transform="translate(322.14 224.46)" fill="#06f" opacity="0.1"/>
    <rect id="Rectangle_19" data-name="Rectangle 19" width="14.44" height="4.44" transform="translate(343.24 224.46)" fill="#06f" opacity="0.1"/>
    <rect id="Rectangle_20" data-name="Rectangle 20" width="14.44" height="4.44" transform="translate(364.34 224.46)" fill="#06f" opacity="0.1"/>
    <rect id="Rectangle_21" data-name="Rectangle 21" width="14.44" height="4.44" transform="translate(385.44 224.46)" fill="#06f" opacity="0.1"/>
    <rect id="Rectangle_22" data-name="Rectangle 22" width="14.44" height="4.44" transform="translate(406.54 224.46)" fill="#06f" opacity="0.1"/>
    <rect id="Rectangle_23" data-name="Rectangle 23" width="149.92" height="7.77" transform="translate(616.43 257.77)" fill="#06f" opacity="0.1"/>
    <rect id="Rectangle_24" data-name="Rectangle 24" width="14.44" height="41.09" transform="translate(629.76 216.68)" fill="#06f" opacity="0.1"/>
    <rect id="Rectangle_25" data-name="Rectangle 25" width="14.44" height="41.09" transform="translate(650.86 216.68)" fill="#06f" opacity="0.1"/>
    <rect id="Rectangle_26" data-name="Rectangle 26" width="14.44" height="41.09" transform="translate(671.96 216.68)" fill="#06f" opacity="0.1"/>
    <rect id="Rectangle_27" data-name="Rectangle 27" width="14.44" height="41.09" transform="translate(693.06 216.68)" fill="#06f" opacity="0.1"/>
    <rect id="Rectangle_28" data-name="Rectangle 28" width="14.44" height="41.09" transform="translate(714.16 216.68)" fill="#06f" opacity="0.1"/>
    <rect id="Rectangle_29" data-name="Rectangle 29" width="14.44" height="41.09" transform="translate(735.26 216.68)" fill="#06f" opacity="0.1"/>
    <rect id="Rectangle_30" data-name="Rectangle 30" width="14.44" height="4.44" transform="translate(629.76 224.46)" fill="#06f" opacity="0.1"/>
    <rect id="Rectangle_31" data-name="Rectangle 31" width="14.44" height="4.44" transform="translate(650.86 224.46)" fill="#06f" opacity="0.1"/>
    <rect id="Rectangle_32" data-name="Rectangle 32" width="14.44" height="4.44" transform="translate(671.96 224.46)" fill="#06f" opacity="0.1"/>
    <rect id="Rectangle_33" data-name="Rectangle 33" width="14.44" height="4.44" transform="translate(693.06 224.46)" fill="#06f" opacity="0.1"/>
    <rect id="Rectangle_34" data-name="Rectangle 34" width="14.44" height="4.44" transform="translate(714.16 224.46)" fill="#06f" opacity="0.1"/>
    <rect id="Rectangle_35" data-name="Rectangle 35" width="14.44" height="4.44" transform="translate(735.26 224.46)" fill="#06f" opacity="0.1"/>
    <rect id="Rectangle_36" data-name="Rectangle 36" width="14.44" height="4.44" transform="translate(629.76 244.45)" fill="#06f" opacity="0.1"/>
    <rect id="Rectangle_37" data-name="Rectangle 37" width="14.44" height="4.44" transform="translate(650.86 244.45)" fill="#06f" opacity="0.1"/>
    <rect id="Rectangle_38" data-name="Rectangle 38" width="14.44" height="4.44" transform="translate(671.96 244.45)" fill="#06f" opacity="0.1"/>
    <rect id="Rectangle_39" data-name="Rectangle 39" width="14.44" height="4.44" transform="translate(693.06 244.45)" fill="#06f" opacity="0.1"/>
    <rect id="Rectangle_40" data-name="Rectangle 40" width="14.44" height="4.44" transform="translate(714.16 244.45)" fill="#06f" opacity="0.1"/>
    <rect id="Rectangle_41" data-name="Rectangle 41" width="14.44" height="4.44" transform="translate(735.26 244.45)" fill="#06f" opacity="0.1"/>
    <rect id="Rectangle_42" data-name="Rectangle 42" width="149.92" height="7.77" transform="translate(616.43 314.41)" fill="#06f" opacity="0.1"/>
    <rect id="Rectangle_43" data-name="Rectangle 43" width="14.44" height="41.09" transform="translate(629.76 273.32)" fill="#06f" opacity="0.1"/>
    <rect id="Rectangle_44" data-name="Rectangle 44" width="14.44" height="41.09" transform="translate(650.86 273.32)" fill="#06f" opacity="0.1"/>
    <rect id="Rectangle_45" data-name="Rectangle 45" width="14.44" height="41.09" transform="translate(671.96 273.32)" fill="#06f" opacity="0.1"/>
    <rect id="Rectangle_46" data-name="Rectangle 46" width="14.44" height="41.09" transform="translate(693.06 273.32)" fill="#06f" opacity="0.1"/>
    <rect id="Rectangle_47" data-name="Rectangle 47" width="14.44" height="41.09" transform="translate(714.16 273.32)" fill="#06f" opacity="0.1"/>
    <rect id="Rectangle_48" data-name="Rectangle 48" width="14.44" height="41.09" transform="translate(735.26 273.32)" fill="#06f" opacity="0.1"/>
    <rect id="Rectangle_49" data-name="Rectangle 49" width="14.44" height="4.44" transform="translate(629.76 281.09)" fill="#06f" opacity="0.1"/>
    <rect id="Rectangle_50" data-name="Rectangle 50" width="14.44" height="4.44" transform="translate(650.86 281.09)" fill="#06f" opacity="0.1"/>
    <rect id="Rectangle_51" data-name="Rectangle 51" width="14.44" height="4.44" transform="translate(671.96 281.09)" fill="#06f" opacity="0.1"/>
    <rect id="Rectangle_52" data-name="Rectangle 52" width="14.44" height="4.44" transform="translate(693.06 281.09)" fill="#06f" opacity="0.1"/>
    <rect id="Rectangle_53" data-name="Rectangle 53" width="14.44" height="4.44" transform="translate(714.16 281.09)" fill="#06f" opacity="0.1"/>
    <rect id="Rectangle_54" data-name="Rectangle 54" width="14.44" height="4.44" transform="translate(735.26 281.09)" fill="#06f" opacity="0.1"/>
    <rect id="Rectangle_55" data-name="Rectangle 55" width="14.44" height="4.44" transform="translate(629.76 301.08)" fill="#06f" opacity="0.1"/>
    <rect id="Rectangle_56" data-name="Rectangle 56" width="14.44" height="4.44" transform="translate(650.86 301.08)" fill="#06f" opacity="0.1"/>
    <rect id="Rectangle_57" data-name="Rectangle 57" width="14.44" height="4.44" transform="translate(671.96 301.08)" fill="#06f" opacity="0.1"/>
    <rect id="Rectangle_58" data-name="Rectangle 58" width="14.44" height="4.44" transform="translate(693.06 301.08)" fill="#06f" opacity="0.1"/>
    <rect id="Rectangle_59" data-name="Rectangle 59" width="14.44" height="4.44" transform="translate(714.16 301.08)" fill="#06f" opacity="0.1"/>
    <rect id="Rectangle_60" data-name="Rectangle 60" width="14.44" height="4.44" transform="translate(735.26 301.08)" fill="#06f" opacity="0.1"/>
    <path id="Path_66" data-name="Path 66" d="M397.86,438.85a39.568,39.568,0,0,1-3.06-4.5l21.59-3.54L393,431a39.43,39.43,0,0,1-.75-31.18l31.32,16.25-28.88-21.23a39.35,39.35,0,1,1,65,44A39.331,39.331,0,0,1,464.2,446l-28,14.55,29.87-10a39.33,39.33,0,0,1-6.34,36.94,39.35,39.35,0,1,1-61.85,0,39.35,39.35,0,0,1,0-48.65Z" transform="translate(-18.2 -113.19)" fill="#06f" opacity="0.1"/>
    <path id="Path_67" data-name="Path 67" d="M468.13,463.18a39.18,39.18,0,0,1-8.42,24.32,39.35,39.35,0,1,1-61.85,0C392.59,480.81,468.13,458.76,468.13,463.18Z" transform="translate(-18.2 -113.19)" fill="#06f" opacity="0.1"/>
    <path id="Path_68" data-name="Path 68" d="M435.1,561.65c.07.11.12.22.19.33H421.93c.07-.11.12-.22.19-.33a13,13,0,0,1-1.72-6.58,13.55,13.55,0,0,1,.81-4.63h0c.74.12,1.66.25,2.72.36a46.863,46.863,0,0,0,9.32,0c.88-.09,1.81-.22,2.75-.36a.637.637,0,0,1,0,.07,13.34,13.34,0,0,1,.79,4.56A13,13,0,0,1,435.1,561.65Z" transform="translate(-18.2 -113.19)" fill="#3f3d56" opacity="0.2"/>
    <path id="Path_69" data-name="Path 69" d="M387.09,562h-74.3c-.17-.43-.32-.88-.45-1.32a39.11,39.11,0,0,1,.87-25.72,39.34,39.34,0,0,1-14.36-46.49,40.7,40.7,0,0,1-4.26-3.4l19.58-9.76-22.25,7.06A39.39,39.39,0,0,1,282,452.79l34.72,6.27L282.86,447.3a39.35,39.35,0,1,1,75.08,22.89,40.086,40.086,0,0,1,6.41,5.53L341.87,497.9l25.59-18.4a39.36,39.36,0,0,1,4.84,37.18A39.36,39.36,0,0,1,387.09,562Z" transform="translate(-18.2 -113.19)" fill="#06f" opacity="0.1"/>
    <path id="Path_70" data-name="Path 70" d="M387.09,562h-74.3c-.17-.43-.32-.88-.45-1.32a39.11,39.11,0,0,1,.87-25.72c-7-4.85,58.66-48.21,60-44a39.27,39.27,0,0,1-.87,25.73A39.36,39.36,0,0,1,387.09,562Z" transform="translate(-18.2 -113.19)" fill="#06f" opacity="0.1"/>
    <path id="Path_71" data-name="Path 71" d="M723.54,508.69a39.16,39.16,0,0,1-19.7,16.56,40.594,40.594,0,0,1,.17,8.47l-31.52-1.89,30.78,6.73A39.44,39.44,0,0,1,688.08,562h-42.9v1.11H601.51c.09-.38.18-.75.28-1.11a39.49,39.49,0,0,1,24-26.71,39.38,39.38,0,0,1,25-41.76,39.384,39.384,0,0,1-.33-5.43l20.35,8-20.12-11.82A39.44,39.44,0,0,1,666,457.14l18.54,30-13.89-33a39.34,39.34,0,0,1,52.88,54.58Z" transform="translate(-18.2 -113.19)" fill="#06f" opacity="0.1"/>
    <path id="Path_72" data-name="Path 72" d="M698.57,550.45A38.789,38.789,0,0,1,688.08,562h-42.9v1.11H601.51c.09-.38.18-.75.28-1.11a39.49,39.49,0,0,1,24-26.71c-.37-2.87,8.11-2.48,19.4-.58C667.26,538.41,700.07,547.94,698.57,550.45Z" transform="translate(-18.2 -113.19)" fill="#06f" opacity="0.1"/>
    <g id="undraw_group_video_el8e" transform="translate(304.6 122.645)">
      <path id="Path_3" data-name="Path 3" d="M791.925,179.575a.912.912,0,0,0-.91.91v73.868a.912.912,0,0,0,.91.91h99.219a.911.911,0,0,0,.91-.91V180.486a.911.911,0,0,0-.91-.91Z" transform="translate(-280.311 -137.403)" fill="#e6e6e6"/>
      <path id="Path_4" data-name="Path 4" d="M796.542,185.1v69.863h95.214V185.1Z" transform="translate(-282.925 -140.017)" fill="#fff"/>
      <path id="Path_5" data-name="Path 5" d="M791.925,377.034a.912.912,0,0,0-.91.91v73.868a.912.912,0,0,0,.91.91h99.219a.911.911,0,0,0,.91-.91V377.944a.911.911,0,0,0-.91-.91Z" transform="translate(-280.311 -230.292)" fill="#e6e6e6"/>
      <path id="Path_6" data-name="Path 6" d="M796.542,382.56v69.863h95.214V382.56Z" transform="translate(-282.925 -232.906)" fill="#fff"/>
      <path id="Path_7" data-name="Path 7" d="M791.925,574.492a.912.912,0,0,0-.91.91V649.27a.912.912,0,0,0,.91.91h99.219a.911.911,0,0,0,.91-.91V575.4a.911.911,0,0,0-.91-.91Z" transform="translate(-280.311 -323.181)" fill="#e6e6e6"/>
      <path id="Path_8" data-name="Path 8" d="M796.542,580.019v69.863h95.214V580.019Z" transform="translate(-282.925 -325.795)" fill="#fff"/>
      <path id="Path_9" data-name="Path 9" d="M887.461,249.184,868.49,235.912h-.006v0a32.587,32.587,0,0,1-1.328-6.236,12.272,12.272,0,0,0,3.635-6.069,2.242,2.242,0,0,1,.22.149c1.662,1.33,4.82-12.8-.5-15.456,0,0-3.989-8.642-11.633-6.648s-11.966,4.986-12.3,7.977a42.675,42.675,0,0,0,.166,7.479s.461-3.393,2.878-4.592a12.267,12.267,0,0,0,3.084,18.709c-.577,1.981-1.348,4.549-2,6.434h0l-5.8,2.883-12.629,7.977s-4.983,6.312-6.648,13.627q-.193.863-.4,1.726H892.6C890.357,257.088,887.461,249.184,887.461,249.184Z" transform="translate(-296.495 -147.705)" fill="#e6e6e6"/>
      <path id="Path_10" data-name="Path 10" d="M882.072,650.092a23.931,23.931,0,0,1,4.1-2.094l-14.117-16.761-9.33-2.388a8.611,8.611,0,0,1-3.679-4.071l5-.049,1.9-10.78c1.157-3.134.686-5.883-1.9-8.148.465-2.9-.851-5.038-4.34-6.244-3.471-3.012-8.6-3.734-11.68,1.09a4.832,4.832,0,0,0-5.093,4.328c-2.828,3.287.312,15.353,1.243,19.951l4.965-.049a7.912,7.912,0,0,1-2.375,4.444l-.067-.067-9.923,4.855-14.117,16.32a23.751,23.751,0,0,1,4,2.02l-1.457,5.54h10.1l2.687-3.906h.135c0-.067.006-.135.006-.2l1.885-2.742c.043,2.216-.018,4.5-.171,6.85h31.417c-.049-1.953-.061-3.893-.061-5.822l3.514,5.1c.263-.386.545-.747.826-1.114l.692,1.837h8.044l-1.928-7.334a1.719,1.719,0,0,0-.269-.563Z" transform="translate(-295.275 -333.903)" fill="#e6e6e6"/>
      <path id="Path_11" data-name="Path 11" d="M878.347,440.737l-13.339-5.454c-.318-1.261-.588-2.449-.759-3.5a11.79,11.79,0,0,0,5.583-7.279L871.239,423a7.594,7.594,0,0,0,2.081-5.914,7.94,7.94,0,0,0-2.92-5.265c.545-3.447-1.016-5.981-5.155-7.413-4.114-3.569-10.2-4.432-13.853,1.292a5.737,5.737,0,0,0-6.048,5.136c-3,3.489.092,10.45,1.567,15.782a2.077,2.077,0,0,0,1.757,1.494,11.85,11.85,0,0,0,3.777,3.557,16.224,16.224,0,0,1-.539,4.567l.012-.465-9.948,4.475-.006-.122-.961.557-1.524.686c.012.061.025.116.037.178l-.141.08a10.615,10.615,0,0,0-4.64,5.516L829.624,462.1H875.39a35.428,35.428,0,0,1,1.714-4.567l.012-.165,4.065,4.732H893.6Z" transform="translate(-298.571 -241.87)" fill="#e6e6e6"/>
      <ellipse id="Ellipse_1" data-name="Ellipse 1" cx="27.506" cy="27.505" rx="27.506" ry="27.505" transform="translate(193.272 332.906)" fill="#e6e6e6"/>
      <ellipse id="Ellipse_2" data-name="Ellipse 2" cx="21.088" cy="21.088" rx="21.088" ry="21.088" transform="translate(199.739 339.324)" fill="#fff"/>
      <ellipse id="Ellipse_3" data-name="Ellipse 3" cx="27.506" cy="27.505" rx="27.506" ry="27.505" transform="translate(84.595 332.906)" fill="#e6e6e6"/>
      <ellipse id="Ellipse_4" data-name="Ellipse 4" cx="21.088" cy="21.088" rx="21.088" ry="21.088" transform="translate(91.013 339.324)" fill="#fff"/>
      <path id="Path_17" data-name="Path 17" d="M296.178,662.486a11.312,11.312,0,0,1-5.283-1.8,34.35,34.35,0,0,1-8.3-6.206,31.487,31.487,0,0,1-6.23-8.294c-2.212-4.022-1.835-6.13-1.413-7.031a5.614,5.614,0,0,1,2.2-2.361,10.59,10.59,0,0,1,1.719-.912l.166-.073a1.607,1.607,0,0,1,1.318-.12,3.86,3.86,0,0,1,1.252.961,20.816,20.816,0,0,1,3.131,4.648,4.632,4.632,0,0,1,.614,1.9,3.008,3.008,0,0,1-.765,1.79c-.079.107-.157.21-.232.31-.457.6-.557.774-.491,1.084a11.387,11.387,0,0,0,2.773,4.113A10.915,10.915,0,0,0,290.7,653.2c.323.069.5-.035,1.12-.508.089-.068.18-.138.276-.208a3.025,3.025,0,0,1,1.817-.813h0a4.35,4.35,0,0,1,1.912.671,22.931,22.931,0,0,1,4.631,3.108,3.858,3.858,0,0,1,.963,1.249,1.619,1.619,0,0,1-.12,1.321c-.022.05-.047.1-.073.165a10.6,10.6,0,0,1-.918,1.716,5.613,5.613,0,0,1-2.364,2.2A4.046,4.046,0,0,1,296.178,662.486Z" transform="translate(-175.977 -288.629)" fill="#06f"/>
      <ellipse id="Ellipse_5" data-name="Ellipse 5" cx="27.506" cy="27.505" rx="27.506" ry="27.505" transform="translate(301.437 332.906)" fill="#e6e6e6"/>
      <ellipse id="Ellipse_6" data-name="Ellipse 6" cx="21.088" cy="21.088" rx="21.088" ry="21.088" transform="translate(307.815 339.324)" fill="#fff"/>
      <path id="Path_18" data-name="Path 18" d="M686.563,681.9h-7.684a.961.961,0,1,1,0-1.921h7.684a.96.96,0,1,1,0,1.921Z" transform="translate(-353.909 -308.998)" fill="#06f"/>
      <path id="Path_19" data-name="Path 19" d="M679.461,664.868a8.654,8.654,0,0,1-8.644-8.645V654.3a.961.961,0,1,1,1.921,0v1.921a6.723,6.723,0,1,0,13.447,0V654.3a.961.961,0,0,1,1.921,0v1.921a8.654,8.654,0,0,1-8.644,8.645Z" transform="translate(-350.629 -296.773)" fill="#06f"/>
      <path id="Path_20" data-name="Path 20" d="M685.981,677.821a.96.96,0,0,1-.96-.96v-4.8a.961.961,0,0,1,1.921,0v4.8A.96.96,0,0,1,685.981,677.821Z" transform="translate(-357.189 -304.923)" fill="#06f"/>
      <path id="Path_21" data-name="Path 21" d="M682.721,653.691a4.732,4.732,0,0,1-3.395-1.447,4.857,4.857,0,0,1-1.408-3.416v-6.664a4.784,4.784,0,0,1,4.765-4.8h.037a4.751,4.751,0,0,1,4.8,4.8v6.663A4.839,4.839,0,0,1,682.721,653.691Z" transform="translate(-353.909 -289.438)" fill="#06f"/>
      <path id="Path_24" data-name="Path 24" d="M415.871,422.859l.771-3.02-6.692-27.726-.653-2.722-.492-2.034.784-.264,39.542-13.176.506,7.317,2.867,41.624Z" transform="translate(-114.05 -96.804)" fill="#ffb9b9"/>
      <path id="Path_25" data-name="Path 25" d="M232.885,392.113l-6.693,27.726.771,3.02H190.33l2.867-41.624.506-7.317,40.327,13.44Z" transform="translate(-93.412 -96.804)" fill="#ffb9b9"/>
      <path id="Path_26" data-name="Path 26" d="M514.736,383.1l-63.851,6.721c6.707-17.266,5.466-37.08,0-58.25h45.928A161.959,161.959,0,0,0,514.736,383.1Z" transform="translate(-264.051 -198.967)" fill="#ffb9b9"/>
      <ellipse id="Ellipse_7" data-name="Ellipse 7" cx="34.726" cy="34.726" rx="34.726" ry="34.726" transform="translate(175.378 90.038)" fill="#ffb9b9"/>
      <path id="Path_27" data-name="Path 27" d="M566.465,401.564c-7.331,32.4-13.363,63.2-17.14,92.711-.1.771-.2,1.534-.292,2.3-.125,1-.25,2-.361,3q-1.854,15.463-2.8,30.469H406.118c.146-9.434-.167-19.084-.868-28.865-2.409-33.551-9.483-68.636-19.139-101.853l.069-.028,61.1-21.1.444-.153c17.612,8.129,35.148,8.5,52.544-3.832.055-.035.1-.076.16-.111l56.952,23.693.021.007Z" transform="translate(-256.906 -203.985)" fill="#06f"/>
      <path id="Path_28" data-name="Path 28" d="M628.295,486.413l-69.452,19.043,16.8-105.3,10.718,3.573a24.846,24.846,0,0,1,16.194,17.335Z" transform="translate(-274.1 -207.061)" fill="#06f"/>
      <path id="Path_29" data-name="Path 29" d="M334.037,486.412l69.452,19.043-16.8-105.3-10.718,3.573a24.846,24.846,0,0,0-16.194,17.336Z" transform="translate(-253.057 -207.061)" fill="#06f"/>
      <path id="Path_30" data-name="Path 30" d="M470.325,256.073h0a36.713,36.713,0,0,0-16.773,4.938c-1.175.684-.632,3.151-1.719,3.956-1.368,1.013-4.339.4-5.551,1.585A36.792,36.792,0,0,0,435.342,296.2l1.929,19.181,4.551-4.977a47.438,47.438,0,0,1,31.636-15.531q.774-.053,1.551-.083l-3.5-6.127,6.085,6.085a59.244,59.244,0,0,1,8.29.675l-4.655-8.148,8.934,8.934h0a23.886,23.886,0,0,1,16.69,13.613l.992,2.2,1.111-18.3a36.884,36.884,0,0,0-38.63-37.644Z" transform="translate(-262.485 -190.052)" fill="#2f2e41"/>
      <ellipse id="Ellipse_8" data-name="Ellipse 8" cx="2.777" cy="6.595" rx="2.777" ry="6.595" transform="translate(172.333 117.35)" fill="#ffb9b9"/>
      <ellipse id="Ellipse_9" data-name="Ellipse 9" cx="2.777" cy="6.595" rx="2.777" ry="6.595" transform="translate(243.515 115.267)" fill="#ffb9b9"/>
    </g>
    <g id="undraw_video_files_fu10" transform="translate(-194.4 476.645)">
      <path id="Path_88" data-name="Path 88" d="M517.327,453.188a1.712,1.712,0,0,1-.7-.148.844.844,0,0,1-.145-.082l-4.426-3.115h0a1.712,1.712,0,0,1-.727-1.4v-4.249a1.712,1.712,0,0,1,.726-1.4l4.426-3.116a.84.84,0,0,1,.145-.082,1.712,1.712,0,0,1,2.408,1.565v10.315a1.712,1.712,0,0,1-1.712,1.712Z" transform="translate(215.19 -439.675)" fill="#06f"/>
      <path id="Path_89" data-name="Path 89" d="M323.151,446.624H310.807c-2.518,0-4.559-1.63-4.562-3.639v-8.134c0-2.009,2.044-3.637,4.562-3.639h12.376c2.5,0,4.527,1.619,4.53,3.613v8.159C327.711,444.994,325.67,446.622,323.151,446.624Z" transform="translate(399.46 -432.275)" fill="#06f"/>
    </g>
  </g>
</svg>
