<svg xmlns="http://www.w3.org/2000/svg" xmlns:xlink="http://www.w3.org/1999/xlink" viewBox="0 0 278.02 63.46" width="110"><defs><style>.cls-1{fill:none;}.cls-2{fill:#293241;}.cls-3{fill:url(#New_Pattern_Swatch_12);}.cls-4{fill:#1071fe;}</style><pattern id="New_Pattern_Swatch_12" data-name="New Pattern Swatch 12" width="155" height="155" patternTransform="translate(0 138)" patternUnits="userSpaceOnUse" viewBox="0 0 155 155"><rect class="cls-1" width="155" height="155"/><rect class="cls-2" width="155" height="155"/></pattern></defs><g id="Layer_2" data-name="Layer 2"><g id="Layer_1-2" data-name="Layer 1"><path class="cls-3" d="M85.2,52.72h23.68V63.46h-35V8.21H85.2Z"/><path class="cls-3" d="M121.27,0a7.1,7.1,0,0,1,5,1.85,6.26,6.26,0,0,1,2,4.78,6.36,6.36,0,0,1-2,4.81,7.61,7.61,0,0,1-10.06,0,6.31,6.31,0,0,1-2-4.81,6.26,6.26,0,0,1,2-4.74A7,7,0,0,1,121.27,0Zm-5.68,63.46V20.05h11.28V63.46Z"/><path class="cls-3" d="M160.73,19.1q7.35,0,11.53,4.58t4.18,12.55V63.46H165.15V38.67q0-4.41-1.89-6.63T157,29.83q-9.78,0-9.78,10.82V63.46H136V20.05h11.29V26A15.66,15.66,0,0,1,160.73,19.1Z"/><path class="cls-3" d="M209.83,19.1q7.33,0,11.52,4.58t4.18,12.55V63.46H214.25V38.67c0-2.94-.64-5.15-1.9-6.63s-3.34-2.21-6.23-2.21q-9.8,0-9.79,10.82V63.46H185V20.05h11.29V26A15.67,15.67,0,0,1,209.83,19.1Z"/><path class="cls-3" d="M278,63.46H263.58l-17.76-19v19H234.53V2.68h11.29V38.12l16.49-18.07h14.37L256.87,40.73Z"/><rect class="cls-4" y="8.05" width="12.99" height="12.99"/><rect class="cls-4" y="29.26" width="12.99" height="12.99"/><rect class="cls-4" x="21.21" y="29.26" width="12.99" height="12.99"/><polygon class="cls-4" points="42.42 8.05 34.2 8.05 21.21 8.05 21.21 21.04 34.2 21.04 42.42 21.04 42.42 29.26 42.42 42.25 55.4 42.25 55.4 29.26 55.4 21.04 55.4 8.05 42.42 8.05"/><rect class="cls-4" y="50.47" width="12.99" height="12.99"/><rect class="cls-4" x="21.21" y="50.47" width="12.99" height="12.99"/><rect class="cls-4" x="42.42" y="50.47" width="12.99" height="12.99"/></g></g></svg>